<svg viewBox="0 0 212 32" fill="none" xmlns="http://www.w3.org/2000/svg">
<path d="M201.552 18.4374C201.637 20.1451 203.146 21.3974 205.565 21.3974C207.615 21.3974 209.066 20.5152 209.066 19.1774C209.066 17.3558 207.473 17.2134 205.309 16.9574C202.065 16.5589 199.475 15.9042 199.475 12.8872C199.475 10.2402 201.894 8.50412 205.167 8.53245C208.469 8.56078 210.859 10.0977 211.087 13.1149H208.696C208.526 11.6349 207.159 10.5248 205.167 10.5248C203.175 10.5248 201.78 11.3786 201.78 12.7165C201.78 14.3103 203.317 14.5097 205.423 14.7657C208.725 15.1642 211.372 15.7903 211.372 19.0066C211.372 21.7106 208.782 23.3897 205.565 23.3897C201.808 23.3897 199.218 21.6251 199.161 18.4374H201.552Z" fill="#262AFF"/>
<path d="M191.722 10.8621H189.103V8.72732H191.722V4.65743H194.056V8.72758H196.83L197.638 10.8623H194.056V19.3848C194.056 20.6088 194.483 21.064 195.735 21.064H196.83L197.638 23.1987H195.507C192.718 23.1987 191.722 21.9747 191.722 19.4132V10.8621Z" fill="#262AFF"/>
<path d="M187.969 15.1176V23.2007H185.636V15.2598C185.636 12.2428 184.241 10.649 181.708 10.649C178.975 10.649 177.325 12.6699 177.325 15.9428V23.2007H174.991V8.68524H177.012L177.325 10.6492C178.178 9.53936 179.658 8.51447 182.106 8.51447C185.379 8.51447 187.969 10.3077 187.969 15.1176Z" fill="#262AFF"/>
<path d="M159.105 15.9678C159.105 11.5561 161.894 8.53917 165.993 8.53917C170.092 8.53917 172.767 11.1293 172.881 15.4269C172.881 15.7401 172.853 16.0817 172.824 16.4232H161.553V16.6223C161.638 19.3832 163.374 21.3186 166.135 21.3186C168.185 21.3186 169.779 20.2371 170.263 18.3586H172.625C172.056 21.2617 169.665 23.3964 166.306 23.3964C161.952 23.3964 159.105 20.4078 159.105 15.9678H159.105ZM170.376 14.4878C170.149 11.9832 168.441 10.5884 166.021 10.5884C163.887 10.5884 161.923 12.1253 161.695 14.4878H170.376Z" fill="#262AFF"/>
<path d="M156.905 14.8824V23.2501H154.571V15.0245C154.571 12.1784 153.318 10.6984 151.127 10.6984C148.707 10.6984 147.227 12.5199 147.227 15.4799V23.2501H144.893V15.0245C144.893 12.1784 143.612 10.6984 141.392 10.6984C139.001 10.6984 137.55 12.6907 137.55 15.5938V23.2501H135.216V8.73464H137.237L137.55 10.727C138.318 9.674 139.542 8.56387 141.791 8.56387C143.812 8.56387 145.548 9.47464 146.373 11.3248C147.255 9.75952 148.821 8.56387 151.411 8.56387C154.428 8.56387 156.905 10.3002 156.905 14.8824Z" fill="#262AFF"/>
<path d="M119.76 8.72465H122.237L126.705 20.3087L131.032 8.72465H133.508L126.33 26.9283C125.419 29.2622 124.878 30.173 122.829 30.173H120.721V28.0382H122.118C123.455 28.0382 123.683 27.6967 124.224 26.3305L125.425 23.3254L119.761 8.72439L119.76 8.72465Z" fill="#262AFF"/>
<path d="M120.721 21.0718V23.2065H119.549C117.614 23.2065 116.959 22.3813 116.931 20.9579C116.02 22.2672 114.568 23.3773 112.064 23.3773C108.876 23.3773 106.713 21.7834 106.713 19.1364C106.713 16.2333 108.734 14.6108 112.548 14.6108H116.817V13.6145C116.817 11.7361 115.479 10.5976 113.202 10.5976C111.153 10.5976 109.787 11.5653 109.502 13.0453H107.168C107.51 10.1991 109.815 8.51977 113.316 8.51977C117.016 8.51977 119.151 10.3699 119.151 13.7567V20.1038C119.151 20.8721 119.435 21.0715 120.09 21.0715H120.721V21.0718ZM116.817 16.5748H112.32C110.242 16.5748 109.075 17.3432 109.075 18.9942C109.075 20.4173 110.299 21.385 112.235 21.385C115.138 21.385 116.817 19.7056 116.817 17.2865V16.5751L116.817 16.5748Z" fill="#262AFF"/>
<path d="M105.178 15.9916C105.178 20.4316 102.218 23.4203 98.2047 23.4203C95.757 23.4203 94.1062 22.4242 93.2237 21.0295V30.2007H90.8898V8.73375H92.9108L93.224 11.0676C94.1917 9.72978 95.7572 8.56298 98.205 8.56298C102.218 8.56298 105.178 11.267 105.178 15.9916H105.178ZM102.787 15.9916C102.787 12.8322 100.852 10.6408 97.9768 10.6408C95.102 10.6408 93.1951 12.8325 93.1951 15.9347C93.1951 19.0369 95.1305 21.3424 97.9768 21.3424C100.823 21.3424 102.787 19.1507 102.787 15.9916Z" fill="#262AFF"/>
<path d="M86.6167 3.35646H82.5984V23.3069H86.6167V3.35646Z" fill="#262AFF"/>
<path d="M80.3897 19.9145V23.3078H78.3373C76.2565 23.3078 75.6012 22.3105 75.6311 20.9142C74.6049 22.5387 73.1231 23.4794 70.8427 23.4794C67.6796 23.4794 65.3992 21.9684 65.3992 19.176C65.3992 16.0691 67.7367 14.3021 72.1257 14.3021H75.0328V13.5878C75.0328 12.2773 74.0921 11.4221 72.4127 11.4221C70.8445 11.4221 69.7905 12.1346 69.6208 13.2174H65.7446C66.0298 10.3676 68.6517 8.48625 72.5276 8.48625C76.6314 8.48625 78.9973 10.3104 78.9973 13.8158V19.0029C78.9973 19.7723 79.3113 19.9147 79.938 19.9147H80.39L80.3897 19.9145ZM75.0317 16.9794H72.0958C70.4146 16.9794 69.4455 17.6632 69.4455 18.8891C69.4455 19.9147 70.2719 20.5703 71.6113 20.5703C73.7198 20.5703 75.0047 19.2597 75.0312 17.2629L75.0317 16.9794Z" fill="#262AFF"/>
<path d="M63.8488 15.9538C63.8488 20.4854 60.9983 23.4774 57.0372 23.4774C55.2713 23.5412 53.5871 22.7319 52.5336 21.3136L52.1349 23.3088H48.6295V3.35646H52.6477V10.5099C53.7262 9.18599 55.3586 8.43838 57.0656 8.48639C60.9981 8.48639 63.8485 11.3079 63.8485 15.9538M59.773 15.9822C59.773 13.4741 58.3483 11.7641 56.1532 11.7641C53.9581 11.7641 52.5906 13.4741 52.5906 15.9536C52.5906 18.433 53.9583 20.2 56.1532 20.2C58.3481 20.2 59.773 18.49 59.773 15.9819" fill="#262AFF"/>
<path d="M31.0633 15.982C31.0633 11.4788 34.1131 8.48625 38.7869 8.48625C43.4608 8.48625 46.5108 11.4788 46.5108 15.982C46.5108 20.4853 43.461 23.4778 38.7872 23.4778C34.1133 23.4778 31.0633 20.4853 31.0633 15.982ZM42.4348 15.982C42.4348 13.5029 41.0385 11.7639 38.7867 11.7639C36.5349 11.7639 35.1668 13.5026 35.1668 15.982C35.1668 18.4615 36.5354 20.2001 38.7867 20.2001C41.0379 20.2001 42.4348 18.4615 42.4348 15.982Z" fill="#262AFF"/>
<path d="M28.9432 3.35646H24.9249V23.3069H28.9432V3.35646Z" fill="#262AFF"/>
<path d="M15.2355 23.3595C13.9892 23.4856 12.8127 23.1913 12.3453 22.8029C12.202 22.671 12.1054 22.4961 12.0701 22.3048C12.0127 22.0362 12.1054 21.7575 12.3125 21.5771C12.745 21.2939 13.2738 21.1987 13.7778 21.3138C14.209 21.3696 14.6432 21.3973 15.0782 21.3971C19.479 21.3971 22.3214 18.7312 22.3214 14.6043C22.3214 10.4774 19.4765 7.80975 15.0779 7.80975C10.6794 7.80975 7.83444 10.4767 7.83444 14.6038C7.83444 16.9027 8.71672 18.7478 10.2595 19.9318C9.51618 20.3791 8.94477 21.0638 8.63793 21.8753C8.38067 22.7996 8.67644 23.7896 9.39862 24.4214L9.57961 24.5971L9.35306 24.7112C7.66906 25.5577 6.85651 26.7405 7.06367 28.0434C7.08507 28.173 7.11628 28.3006 7.15757 28.4252C7.90996 31.0232 11.6852 32.1073 15.4089 31.991C17.5397 31.9243 23.4398 31.0061 23.5012 27.3338C23.5845 22.3023 17.8383 23.1032 15.5806 23.3277L15.2355 23.3595ZM15.0779 11.0853C16.9059 11.0853 18.0412 12.4343 18.0412 14.6051C18.0412 16.7758 16.9059 18.1248 15.0779 18.1248C13.2499 18.1248 12.1134 16.7758 12.1134 14.6051C12.1134 12.4343 13.2487 11.0853 15.0779 11.0853ZM12.3301 26.0516C12.418 26.0397 12.5356 26.0221 12.676 26.0007C15.1441 25.636 18.5348 25.2707 19.4848 26.3435C19.742 26.6411 19.8206 27.0536 19.6902 27.4247C19.415 28.4277 17.2508 28.8698 15.2194 28.8698C14.683 28.8708 14.1468 28.838 13.6144 28.7713C11.983 28.5589 11.0806 28.0562 11.0743 27.3557C11.0572 26.6534 11.9395 26.1032 12.3319 26.05" fill="#262AFF"/>
<path d="M19.1808 4.89219C13.2199 2.71561 6.6359 5.7863 4.45928 11.7471C4.06189 12.8218 3.8361 13.9598 3.78191 15.1068C3.65547 17.5453 4.29669 19.9657 5.62434 22.0249C6.17527 22.8558 5.94948 23.9757 5.11857 24.5356C4.28766 25.0866 3.16774 24.8608 2.60778 24.0299C-2.13382 16.9402 -0.228139 7.35779 6.85265 2.61627C8.14418 1.74925 9.56214 1.08993 11.0524 0.647389C14.1954 -0.282852 17.5461 -0.210582 20.6349 0.864164C21.7548 1.25252 22.3509 2.4808 21.9535 3.6007C21.5652 4.7206 20.3369 5.31667 19.2169 4.91929L19.1718 4.90123" fill="url(#paint0_linear_230_231)"/>
<path d="M19.1808 4.89219C13.2199 2.71561 6.6359 5.7863 4.45928 11.7471C4.06189 12.8218 3.8361 13.9598 3.78191 15.1068C3.65547 17.5453 4.29669 19.9657 5.62434 22.0249C6.17527 22.8558 5.94948 23.9757 5.11857 24.5356C4.28766 25.0866 3.16774 24.8608 2.60778 24.0299C-2.13382 16.9402 -0.228139 7.35779 6.85265 2.61627C8.14418 1.74925 9.56214 1.08993 11.0524 0.647389C14.1954 -0.282852 17.5461 -0.210582 20.6349 0.864164C21.7548 1.25252 22.3509 2.4808 21.9535 3.6007C21.5652 4.7206 20.3369 5.31667 19.2169 4.91929L19.1718 4.90123" fill="url(#paint1_linear_230_231)"/>
<path d="M19.1808 4.89219C13.2199 2.71561 6.6359 5.7863 4.45928 11.7471C4.06189 12.8218 3.8361 13.9598 3.78191 15.1068C3.65547 17.5453 4.29669 19.9657 5.62434 22.0249C6.17527 22.8558 5.94948 23.9757 5.11857 24.5356C4.28766 25.0866 3.16774 24.8608 2.60778 24.0299C-2.13382 16.9402 -0.228139 7.35779 6.85265 2.61627C8.14418 1.74925 9.56214 1.08993 11.0524 0.647389C14.1954 -0.282852 17.5461 -0.210582 20.6349 0.864164C21.7548 1.25252 22.3509 2.4808 21.9535 3.6007C21.5652 4.7206 20.3369 5.31667 19.2169 4.91929L19.1718 4.90123" fill="url(#paint2_linear_230_231)"/>
<path d="M23.0555 3.27582C23.0555 4.58538 21.9898 5.6511 20.6802 5.6511C19.3706 5.6511 18.3049 4.58538 18.3049 3.27582C18.3049 1.96625 19.3706 0.900536 20.6802 0.900536C21.9898 0.900536 23.0555 1.96625 23.0555 3.27582Z" fill="#262AFF"/>
<defs>
<linearGradient id="paint0_linear_230_231" x1="7.91881" y1="0.216307" x2="19.2762" y2="2.96304" gradientUnits="userSpaceOnUse">
<stop stop-color="#3FA3DE"/>
<stop offset="1" stop-color="#3FA3DE" stop-opacity="0"/>
</linearGradient>
<linearGradient id="paint1_linear_230_231" x1="4.62412" y1="21.1305" x2="13.6648" y2="9.68709" gradientUnits="userSpaceOnUse">
<stop stop-color="#262AFF"/>
<stop offset="1" stop-color="#262AFF" stop-opacity="0"/>
</linearGradient>
<linearGradient id="paint2_linear_230_231" x1="4.94203" y1="10.9623" x2="13.4362" y2="5.03667" gradientUnits="userSpaceOnUse">
<stop stop-color="#262AFF" stop-opacity="0.2"/>
<stop offset="1" stop-color="#262AFF" stop-opacity="0"/>
</linearGradient>
</defs>
</svg>
